<?xml version="1.0" standalone="no"?>
<!DOCTYPE svg PUBLIC "-//W3C//DTD SVG 20010904//EN"
 "http://www.w3.org/TR/2001/REC-SVG-20010904/DTD/svg10.dtd">
<svg version="1.0" xmlns="http://www.w3.org/2000/svg"
 width="601.000000pt" height="601.000000pt" viewBox="0 0 601.000000 601.000000"
 preserveAspectRatio="xMidYMid meet">
<metadata>
Created by potrace 1.14, written by Peter Selinger 2001-2017
</metadata>
<g transform="translate(0.000000,601.000000) scale(0.100000,-0.100000)"
fill="#000000" stroke="none">
<path d="M0 3005 l0 -3005 3005 0 3005 0 0 3005 0 3005 -3005 0 -3005 0 0
-3005z m1040 2599 c90 -42 134 -84 172 -162 33 -66 33 -69 33 -207 0 -109 -4
-151 -18 -192 -23 -65 -86 -137 -148 -169 -90 -45 -148 -54 -356 -54 l-193 0
0 -235 0 -235 -135 0 -135 0 0 646 0 645 358 -3 357 -3 65 -31z m2780 -169 l0
-135 80 0 80 0 0 -90 0 -90 -80 0 -81 0 3 -285 c3 -241 5 -287 18 -295 8 -5
43 -10 78 -10 l62 0 0 -96 0 -96 -137 4 c-125 3 -142 5 -183 28 -79 44 -80 47
-80 423 l0 327 -70 0 -70 0 0 90 0 90 70 0 70 0 0 135 0 135 120 0 120 0 0
-135z m-1869 -119 c135 -29 209 -77 246 -161 15 -35 18 -84 23 -388 5 -347 5
-349 28 -367 12 -10 22 -25 22 -34 0 -14 -18 -16 -135 -16 l-135 0 -10 26 c-6
14 -10 38 -10 54 l0 29 -64 -48 c-90 -69 -142 -86 -251 -86 -77 1 -97 5 -141
27 -61 32 -117 91 -135 144 -8 22 -14 73 -13 114 1 177 96 269 314 305 52 8
125 20 161 26 70 11 105 33 114 72 8 32 -9 73 -40 93 -37 24 -150 30 -197 11
-38 -16 -78 -67 -78 -99 0 -16 -13 -18 -124 -18 l-123 0 8 52 c11 68 52 150
92 184 40 34 122 72 179 83 68 14 197 12 269 -3z m1151 -6 c73 -22 139 -73
167 -129 35 -67 41 -145 41 -493 l0 -338 -130 0 -130 0 0 327 c0 309 -1 329
-20 369 -25 51 -68 74 -138 74 -87 0 -134 -29 -175 -105 -21 -38 -22 -55 -25
-352 l-3 -313 -125 0 -124 0 0 480 0 480 120 0 119 0 3 -71 3 -71 33 44 c60
80 138 116 253 117 40 1 93 -7 131 -19z m1588 -107 l0 -128 -74 -1 c-98 0
-160 -31 -196 -95 -25 -44 -25 -46 -28 -336 l-3 -293 -125 0 -124 0 0 480 0
481 118 -3 117 -3 5 -74 5 -75 28 41 c60 87 137 132 230 133 l47 0 0 -127z
m348 45 c11 -35 57 -190 103 -345 45 -156 85 -283 89 -283 3 0 49 154 101 343
l95 342 132 3 c73 1 132 -1 132 -5 0 -18 -371 -1067 -404 -1143 -45 -105 -78
-148 -131 -171 -46 -21 -204 -36 -249 -25 -26 6 -26 7 -26 104 l0 97 58 1 c77
2 115 23 136 74 9 22 16 49 16 60 0 11 -76 237 -170 503 -93 266 -170 489
-170 496 0 8 41 11 135 11 l134 0 19 -62z m-3270 -1664 c21 -6 22 -11 22 -105
l0 -99 -64 0 c-79 0 -96 -17 -96 -97 l0 -53 80 0 80 0 0 -90 0 -90 -80 0 -80
0 0 -385 0 -385 -125 0 -125 0 0 385 0 385 -70 0 -70 0 0 90 0 90 70 0 70 0 0
76 c0 204 79 278 300 283 36 0 75 -2 88 -5z m-974 -329 c94 -20 152 -50 213
-110 96 -97 147 -232 147 -390 -1 -253 -126 -435 -337 -491 -69 -18 -228 -18
-302 1 -206 54 -335 242 -335 490 0 262 152 467 371 504 83 13 167 12 243 -4z
m246 -1791 c90 -42 134 -84 172 -162 33 -66 33 -69 33 -207 0 -109 -4 -151
-18 -192 -23 -65 -86 -137 -148 -169 -90 -45 -148 -54 -356 -54 l-193 0 0
-235 0 -235 -135 0 -135 0 0 646 0 645 358 -3 357 -3 65 -31z m650 -609 l0
-645 -125 0 -125 0 0 645 0 645 125 0 125 0 0 -645z m2630 440 l0 -135 80 0
80 0 0 -90 0 -90 -80 0 -80 0 0 -267 c0 -196 4 -275 13 -293 11 -22 19 -25 80
-28 l67 -3 0 -95 0 -96 -137 4 c-125 3 -142 5 -183 28 -79 44 -80 47 -80 423
l0 327 -70 0 -70 0 0 90 0 90 70 0 70 0 0 135 0 135 120 0 120 0 0 -135z
m-1847 -124 c128 -33 187 -74 224 -156 15 -35 18 -83 23 -389 5 -348 5 -349
28 -364 12 -8 22 -23 22 -33 0 -18 -10 -19 -135 -19 l-135 0 -10 26 c-6 14
-10 38 -10 54 l0 29 -64 -48 c-89 -68 -142 -86 -246 -86 -104 1 -171 27 -228
89 -50 54 -66 102 -66 197 1 175 98 269 314 303 52 9 124 21 160 26 86 14 115
36 115 88 0 49 -24 78 -74 92 -52 14 -126 12 -166 -4 -35 -15 -75 -67 -75 -98
0 -16 -12 -18 -120 -18 l-120 0 0 28 c0 48 29 125 64 174 39 51 127 102 206
117 82 16 212 12 293 -8z m1129 -1 c82 -25 147 -80 179 -152 24 -52 24 -57 27
-430 l3 -378 -130 0 -131 0 0 327 c0 307 -1 329 -20 368 -29 60 -69 79 -153
73 -73 -4 -107 -22 -144 -77 -36 -53 -43 -117 -43 -411 l0 -280 -125 0 -125 0
2 478 3 477 118 3 117 3 0 -71 0 -71 58 61 c44 47 70 66 112 80 73 25 171 25
252 0z m1571 5 c143 -37 228 -125 251 -257 l7 -38 -123 0 -124 0 -19 43 c-27
57 -69 77 -160 77 -38 0 -81 -6 -95 -13 -57 -29 -64 -104 -12 -131 15 -8 95
-30 177 -50 225 -55 300 -95 349 -187 23 -42 28 -62 28 -123 -1 -84 -17 -130
-67 -192 -41 -50 -133 -99 -214 -114 -70 -13 -222 -13 -295 1 -163 30 -272
136 -293 284 l-6 46 129 -3 c120 -3 129 -4 132 -23 16 -87 72 -120 202 -120
126 0 175 34 156 111 -9 33 -45 49 -219 94 -298 78 -381 151 -363 323 13 126
105 231 239 272 59 19 249 19 320 0z"/>
<path d="M530 5231 l0 -191 158 0 c144 0 162 2 202 23 54 27 85 71 94 131 14
92 -18 171 -82 202 -31 16 -66 20 -204 22 l-168 3 0 -190z"/>
<path d="M1930 4798 c-14 -6 -64 -19 -112 -29 -112 -24 -152 -41 -175 -75 -21
-33 -24 -100 -4 -137 53 -100 265 -54 311 67 14 39 26 186 14 185 -5 0 -20 -5
-34 -11z"/>
<path d="M600 3048 c-56 -16 -100 -56 -129 -117 -24 -51 -26 -67 -26 -176 0
-112 2 -124 28 -178 39 -78 87 -110 172 -115 108 -7 167 24 212 111 23 44 28
68 31 158 5 132 -12 202 -65 259 -53 59 -140 82 -223 58z"/>
<path d="M530 1091 l0 -191 158 0 c144 0 162 2 202 23 54 27 85 71 94 131 14
92 -18 171 -82 202 -31 16 -66 20 -204 22 l-168 3 0 -190z"/>
<path d="M2438 660 c-9 -6 -60 -19 -113 -30 -159 -33 -198 -61 -198 -146 0
-57 17 -89 61 -110 46 -22 117 -13 182 22 65 35 90 85 97 194 6 80 3 88 -29
70z"/>
</g>
</svg>
