<svg width="33" height="33" viewBox="0 0 33 33" fill="none" xmlns="http://www.w3.org/2000/svg">
<path d="M7.21875 5.5H25.7812C26.9227 5.49993 28.0209 5.93664 28.8506 6.72055C29.6802 7.50446 30.1785 8.57614 30.2431 9.71575L30.25 9.96875V23.0312C30.2501 24.1727 29.8134 25.2709 29.0295 26.1006C28.2455 26.9302 27.1739 27.4285 26.0343 27.4931L25.7812 27.5H7.21875C6.07731 27.5001 4.97911 27.0634 4.14943 26.2795C3.31975 25.4955 2.8215 24.4239 2.75688 23.2843L2.75 23.0312V9.96875C2.74993 8.82731 3.18664 7.72911 3.97055 6.89943C4.75446 6.06975 5.82614 5.5715 6.96575 5.50688L7.21875 5.5H25.7812H7.21875ZM28.1875 12.8879L16.9813 18.7866C16.8547 18.8535 16.7157 18.8932 16.5729 18.9034C16.4302 18.9136 16.2869 18.894 16.1521 18.8458L16.0201 18.788L4.8125 12.8892V23.0312C4.81252 23.6351 5.03961 24.2169 5.44868 24.6612C5.85776 25.1054 6.41891 25.3796 7.02075 25.4292L7.21875 25.4375H25.7812C26.3854 25.4374 26.9673 25.2102 27.4116 24.8008C27.8559 24.3914 28.1299 23.83 28.1792 23.2279L28.1875 23.0312V12.8879ZM25.7812 7.5625H7.21875C6.61486 7.56252 6.03306 7.78961 5.58884 8.19868C5.14461 8.60776 4.87044 9.16891 4.82075 9.77075L4.8125 9.96875V10.5586L16.5 16.709L28.1875 10.5572V9.96875C28.1874 9.36465 27.9602 8.78266 27.5508 8.3384C27.1414 7.89414 26.58 7.62011 25.9779 7.57075L25.7812 7.5625Z" fill="#758B7A"/>
</svg>
